<svg xmlns="http://www.w3.org/2000/svg" viewBox="0 0 32 32" width="32" height="32">
  <defs>
    <linearGradient id="bg" x1="0%" y1="0%" x2="100%" y2="100%">
      <stop offset="0%" stop-color="#10b981"/>
      <stop offset="100%" stop-color="#047857"/>
    </linearGradient>
  </defs>
  <!-- Rounded-square badge background -->
  <rect width="32" height="32" rx="7" ry="7" fill="url(#bg)"/>
  <!-- Lucide wallet glyph scaled from 24x24 to ~18px centered in 32x32 badge.
       Scale factor: 18/24 = 0.75. Translate to center: (32-18)/2 = 7
       transform="translate(7,7) scale(0.75)" -->
  <g transform="translate(7,7) scale(0.75)" fill="none" stroke="white" stroke-width="2" stroke-linecap="round" stroke-linejoin="round">
    <path d="M19 7V4a1 1 0 0 0-1-1H5a2 2 0 0 0 0 4h15a1 1 0 0 1 1 1v4h-3a2 2 0 0 0 0 4h3a1 1 0 0 1-1 1v3a1 1 0 0 1-1 1H5a2 2 0 0 1-2-2V5"/>
    <path d="M3 5v14a2 2 0 0 0 2 2h15a1 1 0 0 0 1-1v-4"/>
  </g>
</svg>
